<svg version="1.1" id="Layer_1" xmlns="http://www.w3.org/2000/svg" xmlns:xlink="http://www.w3.org/1999/xlink" x="0px" y="0px"
	 viewBox="0 0 24.1 24" style="enable-background:new 0 0 24.1 24;" xml:space="preserve">
<style type="text/css">
	.st0{fill:#231F20;}
</style>
<g>
	<path class="st0" d="M12.1,5.5L12.1,5.5c-3.6,0-6.5,3-6.5,6.5c0,3.6,2.9,6.5,6.5,6.5h0.1c3.6,0,6.5-2.9,6.5-6.5
		C18.6,8.4,15.6,5.5,12.1,5.5z M12.1,16.4L12.1,16.4c-2.4,0-4.4-2-4.4-4.4c0-2.4,2-4.3,4.3-4.3h0.1c2.4,0,4.3,2,4.3,4.3
		C16.4,14.4,14.4,16.4,12.1,16.4z"/>
	<path class="st0" d="M17.6,0H6.5C2.9,0,0,2.9,0,6.5v11C0,21.1,2.9,24,6.5,24h11.1c3.6,0,6.5-2.9,6.5-6.5v-11
		C24.1,2.9,21.1,0,17.6,0z M22,17.5c0,2.5-2,4.5-4.5,4.5h-11c-2.5,0-4.5-2-4.5-4.5V6.5c0-2.5,2-4.5,4.5-4.5h11c2.5,0,4.5,2,4.5,4.5
		V17.5z"/>
	<path class="st0" d="M18.5,4.2c-0.8,0-1.4,0.6-1.4,1.4c0,0.7,0.6,1.4,1.4,1.4c0.7,0,1.4-0.6,1.4-1.4C19.9,4.8,19.2,4.2,18.5,4.2z"
		/>
</g>
</svg>
