<svg version="1.1" id="Layer_1" xmlns="http://www.w3.org/2000/svg" xmlns:xlink="http://www.w3.org/1999/xlink" x="0px" y="0px"
	 viewBox="0 0 33.9 24" style="enable-background:new 0 0 33.9 24;" xml:space="preserve">
<style type="text/css">
	.st0{fill-rule:evenodd;clip-rule:evenodd;fill:#231F20;}
</style>
<path class="st0" d="M33.5,5.3C33,1.4,31,0.7,27.1,0.4C23.7,0.1,19.9,0,16.9,0S10.1,0.1,6.8,0.4c-3.9,0.3-5.9,1-6.5,4.9
	C0.1,7.1,0,9.5,0,12s0.1,5,0.3,6.7c0.5,4,2.6,4.5,6.5,4.9C10.1,23.9,14,24,16.9,24s6.8-0.1,10.2-0.4c3.9-0.3,5.9-0.9,6.4-4.9
	c0.3-1.7,0.4-4.2,0.4-6.7S33.8,7.1,33.5,5.3z M13.5,17.1V6.9l8.8,5.1L13.5,17.1z"/>
</svg>
