<svg xmlns="http://www.w3.org/2000/svg" xmlns:xlink="http://www.w3.org/1999/xlink" version="1.1" width="1000" height="1000" viewBox="0 0 1000 1000" xml:space="preserve">
  <rect x="0" y="0" width="100%" height="100%" fill="#ffffff" />
  <g transform="matrix(37.8788 0 0 37.8788 500.0001 500.0001)" id="226737">
    <g style="" vector-effect="non-scaling-stroke">
      <g transform="matrix(0 1 -1 0 0 0)">
        <rect style="stroke: none; stroke-width: 1; stroke-dasharray: none; stroke-linecap: butt; stroke-dashoffset: 0; stroke-linejoin: miter; stroke-miterlimit: 4; is-custom-font: none; font-file-url: none; fill: rgb(255,255,255); fill-rule: nonzero; opacity: 0;" x="-12" y="-12" rx="0" ry="0" width="24" height="24" />
      </g>
      <g transform="matrix(1 0 0 1 0 -0.0007)">
        <path style="stroke: none; stroke-width: 1; stroke-dasharray: none; stroke-linecap: butt; stroke-dashoffset: 0; stroke-linejoin: miter; stroke-miterlimit: 4; is-custom-font: none; font-file-url: none; fill: rgb(255,255,255); fill-rule: nonzero; opacity: 1;" transform=" translate(-12, -11.9994)" d="M 19 11 H 7.14 l 3.63 -4.36 a 1 1 0 1 0 -1.54 -1.28 l -5 6 a 1.19 1.19 0 0 0 -0.09 0.15 c 0 0.05 0 0.08 -0.07 0.13 A 1 1 0 0 0 4 12 a 1 1 0 0 0 0.07 0.36 c 0 0.05 0 0.08 0.07 0.13 a 1.19 1.19 0 0 0 0.09 0.15 l 5 6 A 1 1 0 0 0 10 19 a 1 1 0 0 0 0.64 -0.23 a 1 1 0 0 0 0.13 -1.41 L 7.14 13 H 19 a 1 1 0 0 0 0 -2 z" stroke-linecap="round" />
      </g>
    </g>
  </g>
</svg>