<svg width="238" height="49" viewBox="0 0 238 49" fill="none" xmlns="http://www.w3.org/2000/svg">
  <rect x="0.5" y="0.307709" width="237" height="48" rx="4" fill="black" />
  <path d="M34.1995 22.1518H31.676C31.6041 21.738 31.4714 21.3714 31.278 21.052C31.0845 20.7282 30.8439 20.4538 30.556 20.2289C30.2681 20.004 29.9398 19.8353 29.5709 19.7228C29.2066 19.6059 28.813 19.5474 28.3902 19.5474C27.639 19.5474 26.9733 19.7363 26.393 20.1142C25.8128 20.4875 25.3585 21.0363 25.0301 21.7605C24.7017 22.4802 24.5376 23.3596 24.5376 24.3986C24.5376 25.4557 24.7017 26.3463 25.0301 27.0705C25.363 27.7902 25.8173 28.3345 26.393 28.7033C26.9733 29.0677 27.6367 29.2498 28.3834 29.2498C28.7973 29.2498 29.1841 29.1958 29.5439 29.0879C29.9083 28.9754 30.2344 28.8113 30.5223 28.5954C30.8147 28.3794 31.0598 28.1141 31.2577 27.7992C31.4601 27.4843 31.5996 27.1245 31.676 26.7196L34.1995 26.7331C34.105 27.3899 33.9004 28.0061 33.5855 28.5819C33.2751 29.1576 32.868 29.6659 32.3643 30.1067C31.8605 30.543 31.2712 30.8849 30.5965 31.1323C29.9218 31.3752 29.1729 31.4966 28.3497 31.4966C27.1352 31.4966 26.0512 31.2155 25.0976 30.6532C24.144 30.091 23.3928 29.2791 22.844 28.2175C22.2952 27.156 22.0209 25.883 22.0209 24.3986C22.0209 22.9097 22.2975 21.6368 22.8508 20.5797C23.404 19.5182 24.1575 18.7063 25.1111 18.144C26.0647 17.5817 27.1442 17.3006 28.3497 17.3006C29.1189 17.3006 29.8341 17.4086 30.4953 17.6245C31.1565 17.8404 31.7458 18.1575 32.2631 18.5758C32.7803 18.9896 33.2054 19.4979 33.5383 20.1007C33.8756 20.6989 34.096 21.3826 34.1995 22.1518ZM40.9045 31.5101C39.8924 31.5101 39.0153 31.2875 38.2731 30.8422C37.5309 30.3968 36.9551 29.7739 36.5458 28.9732C36.141 28.1725 35.9386 27.2369 35.9386 26.1664C35.9386 25.0958 36.141 24.158 36.5458 23.3528C36.9551 22.5476 37.5309 21.9224 38.2731 21.4771C39.0153 21.0318 39.8924 20.8091 40.9045 20.8091C41.9165 20.8091 42.7937 21.0318 43.5359 21.4771C44.2781 21.9224 44.8516 22.5476 45.2564 23.3528C45.6657 24.158 45.8704 25.0958 45.8704 26.1664C45.8704 27.2369 45.6657 28.1725 45.2564 28.9732C44.8516 29.7739 44.2781 30.3968 43.5359 30.8422C42.7937 31.2875 41.9165 31.5101 40.9045 31.5101ZM40.918 29.5534C41.4667 29.5534 41.9255 29.4028 42.2944 29.1014C42.6632 28.7955 42.9376 28.3862 43.1175 27.8734C43.302 27.3606 43.3942 26.7894 43.3942 26.1596C43.3942 25.5254 43.302 24.9519 43.1175 24.4391C42.9376 23.9218 42.6632 23.5102 42.2944 23.2044C41.9255 22.8985 41.4667 22.7456 40.918 22.7456C40.3557 22.7456 39.8879 22.8985 39.5146 23.2044C39.1457 23.5102 38.8691 23.9218 38.6847 24.4391C38.5047 24.9519 38.4148 25.5254 38.4148 26.1596C38.4148 26.7894 38.5047 27.3606 38.6847 27.8734C38.8691 28.3862 39.1457 28.7955 39.5146 29.1014C39.8879 29.4028 40.3557 29.5534 40.918 29.5534ZM50.3859 25.2353V31.3077H47.9434V20.9441H50.278V22.7051H50.3994C50.6378 22.1248 51.0179 21.6638 51.5397 21.3219C52.066 20.9801 52.7159 20.8091 53.4896 20.8091C54.2048 20.8091 54.8278 20.9621 55.3586 21.2679C55.8939 21.5738 56.3077 22.0169 56.6001 22.5971C56.8969 23.1774 57.0431 23.8813 57.0386 24.709V31.3077H54.5961V25.0868C54.5961 24.3941 54.4162 23.8521 54.0564 23.4608C53.701 23.0694 53.2085 22.8738 52.5787 22.8738C52.1514 22.8738 51.7713 22.9682 51.4385 23.1571C51.1101 23.3416 50.8515 23.6092 50.6626 23.9601C50.4781 24.3109 50.3859 24.736 50.3859 25.2353ZM64.6966 20.9441V22.8333H58.7389V20.9441H64.6966ZM60.2098 18.4611H62.6523V28.1905C62.6523 28.5189 62.7017 28.7708 62.8007 28.9462C62.9041 29.1171 63.0391 29.2341 63.2055 29.2971C63.372 29.36 63.5564 29.3915 63.7588 29.3915C63.9117 29.3915 64.0512 29.3803 64.1771 29.3578C64.3076 29.3353 64.4065 29.315 64.474 29.2971L64.8856 31.2065C64.7551 31.2515 64.5684 31.301 64.3256 31.3549C64.0872 31.4089 63.7948 31.4404 63.4484 31.4494C62.8367 31.4674 62.2857 31.3752 61.7954 31.1728C61.3051 30.9659 60.916 30.6465 60.6281 30.2147C60.3447 29.7829 60.2053 29.2431 60.2098 28.5954V18.4611ZM66.7393 31.3077V20.9441H69.1818V31.3077H66.7393ZM67.9673 19.4732C67.5805 19.4732 67.2476 19.345 66.9688 19.0886C66.6899 18.8277 66.5504 18.5151 66.5504 18.1507C66.5504 17.7819 66.6899 17.4693 66.9688 17.2129C67.2476 16.952 67.5805 16.8216 67.9673 16.8216C68.3587 16.8216 68.6915 16.952 68.9659 17.2129C69.2448 17.4693 69.3842 17.7819 69.3842 18.1507C69.3842 18.5151 69.2448 18.8277 68.9659 19.0886C68.6915 19.345 68.3587 19.4732 67.9673 19.4732ZM74.1359 25.2353V31.3077H71.6934V20.9441H74.028V22.7051H74.1494C74.3878 22.1248 74.7679 21.6638 75.2897 21.3219C75.816 20.9801 76.4659 20.8091 77.2396 20.8091C77.9548 20.8091 78.5778 20.9621 79.1086 21.2679C79.6439 21.5738 80.0577 22.0169 80.3501 22.5971C80.6469 23.1774 80.7931 23.8813 80.7886 24.709V31.3077H78.3461V25.0868C78.3461 24.3941 78.1662 23.8521 77.8064 23.4608C77.451 23.0694 76.9585 22.8738 76.3287 22.8738C75.9014 22.8738 75.5213 22.9682 75.1885 23.1571C74.8601 23.3416 74.6015 23.6092 74.4126 23.9601C74.2281 24.3109 74.1359 24.736 74.1359 25.2353ZM89.877 26.949V20.9441H92.3195V31.3077H89.9513V29.4657H89.8433C89.6094 30.046 89.2248 30.5205 88.6895 30.8894C88.1588 31.2582 87.5043 31.4427 86.7261 31.4427C86.0469 31.4427 85.4464 31.292 84.9246 30.9906C84.4073 30.6847 84.0025 30.2417 83.7101 29.6614C83.4178 29.0766 83.2716 28.3704 83.2716 27.5428V20.9441H85.714V27.165C85.714 27.8217 85.894 28.3435 86.2538 28.7303C86.6137 29.1171 87.086 29.3105 87.6707 29.3105C88.0306 29.3105 88.3792 29.2228 88.7165 29.0474C89.0539 28.872 89.3305 28.6111 89.5464 28.2647C89.7668 27.9139 89.877 27.4753 89.877 26.949ZM99.4192 31.5101C98.3801 31.5101 97.4828 31.2942 96.7271 30.8624C95.9759 30.4261 95.3979 29.8098 94.9931 29.0137C94.5882 28.213 94.3858 27.2707 94.3858 26.1866C94.3858 25.1206 94.5882 24.185 94.9931 23.3798C95.4024 22.5701 95.9737 21.9404 96.7069 21.4906C97.44 21.0363 98.3014 20.8091 99.291 20.8091C99.9297 20.8091 100.532 20.9126 101.099 21.1195C101.671 21.3219 102.174 21.6368 102.611 22.0641C103.051 22.4914 103.398 23.0357 103.65 23.6969C103.902 24.3536 104.028 25.1363 104.028 26.0449V26.7939H95.5328V25.1476H101.686C101.682 24.6797 101.581 24.2637 101.383 23.8993C101.185 23.5305 100.908 23.2404 100.553 23.0289C100.202 22.8175 99.7926 22.7118 99.3248 22.7118C98.8255 22.7118 98.3869 22.8333 98.0091 23.0762C97.6312 23.3146 97.3366 23.6294 97.1252 24.0208C96.9183 24.4076 96.8126 24.8327 96.8081 25.296V26.7331C96.8081 27.3359 96.9183 27.8532 97.1387 28.285C97.3591 28.7123 97.6672 29.0407 98.063 29.2701C98.4589 29.495 98.9222 29.6074 99.4529 29.6074C99.8083 29.6074 100.13 29.5579 100.418 29.459C100.706 29.3555 100.955 29.2048 101.167 29.0069C101.378 28.809 101.538 28.5639 101.646 28.2715L103.926 28.5279C103.782 29.1306 103.508 29.6569 103.103 30.1067C102.703 30.552 102.19 30.8984 101.565 31.1458C100.94 31.3887 100.224 31.5101 99.4192 31.5101ZM112.946 31.3077L110.017 20.9441H112.507L114.329 28.231H114.423L116.285 20.9441H118.748L120.61 28.1905H120.712L122.506 20.9441H125.003L122.068 31.3077H119.524L117.581 24.3042H117.439L115.496 31.3077H112.946ZM126.708 31.3077V20.9441H129.151V31.3077H126.708ZM127.936 19.4732C127.549 19.4732 127.216 19.345 126.938 19.0886C126.659 18.8277 126.519 18.5151 126.519 18.1507C126.519 17.7819 126.659 17.4693 126.938 17.2129C127.216 16.952 127.549 16.8216 127.936 16.8216C128.327 16.8216 128.66 16.952 128.935 17.2129C129.214 17.4693 129.353 17.7819 129.353 18.1507C129.353 18.5151 129.214 18.8277 128.935 19.0886C128.66 19.345 128.327 19.4732 127.936 19.4732ZM136.837 20.9441V22.8333H130.88V20.9441H136.837ZM132.35 18.4611H134.793V28.1905C134.793 28.5189 134.842 28.7708 134.941 28.9462C135.045 29.1171 135.18 29.2341 135.346 29.2971C135.513 29.36 135.697 29.3915 135.899 29.3915C136.052 29.3915 136.192 29.3803 136.318 29.3578C136.448 29.3353 136.547 29.315 136.615 29.2971L137.026 31.2065C136.896 31.2515 136.709 31.301 136.466 31.3549C136.228 31.4089 135.935 31.4404 135.589 31.4494C134.977 31.4674 134.426 31.3752 133.936 31.1728C133.446 30.9659 133.057 30.6465 132.769 30.2147C132.485 29.7829 132.346 29.2431 132.35 28.5954V18.4611ZM141.545 25.2353V31.3077H139.103V17.4895H141.491V22.7051H141.613C141.855 22.1203 142.231 21.6593 142.739 21.3219C143.252 20.9801 143.904 20.8091 144.696 20.8091C145.416 20.8091 146.043 20.9598 146.578 21.2612C147.114 21.5626 147.528 22.0034 147.82 22.5836C148.117 23.1639 148.265 23.8723 148.265 24.709V31.3077H145.823V25.0868C145.823 24.3896 145.643 23.8476 145.283 23.4608C144.928 23.0694 144.428 22.8738 143.785 22.8738C143.353 22.8738 142.967 22.9682 142.625 23.1571C142.287 23.3416 142.022 23.6092 141.828 23.9601C141.64 24.3109 141.545 24.736 141.545 25.2353Z" fill="white" />
  <path d="M211.3 28.6611L207.836 21.0926H204.961L209.909 31.3047L209.82 31.6122C209.696 32.0209 209.434 32.3739 209.08 32.6109C208.725 32.8479 208.299 32.9542 207.875 32.9116C207.379 32.907 206.892 32.7755 206.46 32.5297L206 34.7169C206.664 34.9913 207.375 35.1344 208.093 35.1385C210.072 35.1385 211.27 34.4094 212.26 32.2619L217.5 21.0926H214.724L211.3 28.6611Z" fill="white" />
  <path d="M186.819 17.4869H178.515V31.3989H181.237V26.2854H186.819C189.852 26.2854 191.846 24.7529 191.846 21.8862C191.846 19.0194 189.852 17.4869 186.819 17.4869ZM186.67 23.8502H181.227V19.8824H186.67C188.244 19.8824 189.144 20.6016 189.144 21.8663C189.144 23.131 188.244 23.8502 186.67 23.8502Z" fill="white" />
  <path d="M203.225 28.7603V24.5694C203.225 22.0895 201.448 20.8049 198.4 20.8049C195.926 20.8049 193.759 21.9606 193.15 23.7361L195.387 24.5297C195.718 23.6419 196.871 22.9872 198.306 22.9872C200.008 22.9872 200.726 23.6816 200.726 24.5297V24.8025L196.678 25.2489C194.347 25.4968 192.813 26.5433 192.813 28.4131C192.813 30.4615 194.57 31.5626 196.901 31.5626C198.403 31.6095 199.866 31.0769 200.988 30.0747C201.394 31.0666 201.81 31.7312 204.576 31.3791V29.3059C203.467 29.5737 203.225 29.3059 203.225 28.7603ZM200.751 27.4311C200.751 28.7802 198.865 29.4944 197.287 29.4944C196.084 29.4944 195.362 29.1075 195.362 28.3388C195.362 27.57 195.956 27.2923 197.104 27.1583L200.761 26.7318L200.751 27.4311Z" fill="white" />
  <path d="M173.368 28.1354C173.387 28.1934 173.387 28.256 173.368 28.3139C173.357 28.3717 173.329 28.4251 173.289 28.4677L170.671 31.2203C170.613 31.2798 170.544 31.327 170.468 31.3592C170.392 31.3928 170.309 31.4097 170.226 31.4088H157.81C157.752 31.4093 157.696 31.3939 157.647 31.3642C157.597 31.3306 157.558 31.2843 157.533 31.2303C157.515 31.1754 157.515 31.1165 157.533 31.0616C157.543 31.0045 157.569 30.9514 157.607 30.9079L160.23 28.1552C160.287 28.0958 160.356 28.0486 160.433 28.0164C160.509 27.9824 160.592 27.9654 160.675 27.9668H173.071C173.131 27.9656 173.189 27.9829 173.239 28.0164C173.295 28.0394 173.34 28.0816 173.368 28.1354ZM170.676 22.9079C170.617 22.85 170.548 22.803 170.473 22.769C170.396 22.7378 170.314 22.721 170.231 22.7194H157.81C157.752 22.7202 157.695 22.7374 157.646 22.769C157.597 22.8005 157.558 22.8452 157.533 22.8979C157.516 22.9528 157.516 23.0117 157.533 23.0666C157.541 23.1243 157.567 23.178 157.607 23.2203L160.23 25.9779C160.289 26.0358 160.357 26.0828 160.433 26.1168C160.51 26.1484 160.592 26.1653 160.675 26.1664H173.071C173.131 26.1675 173.189 26.1502 173.239 26.1168C173.289 26.0876 173.328 26.0421 173.348 25.9878C173.373 25.9351 173.382 25.8757 173.372 25.818C173.362 25.7602 173.335 25.7069 173.294 25.6655L170.676 22.9079ZM157.647 20.8744C157.696 20.9041 157.752 20.9195 157.81 20.919H170.231C170.314 20.9199 170.397 20.903 170.473 20.8694C170.549 20.8372 170.618 20.79 170.676 20.7305L173.294 17.9779C173.334 17.9353 173.362 17.8819 173.373 17.8242C173.39 17.7693 173.39 17.7104 173.373 17.6555C173.352 17.6013 173.314 17.5558 173.264 17.5266C173.214 17.4931 173.155 17.4758 173.096 17.477H160.655C160.572 17.4756 160.489 17.4926 160.413 17.5266C160.337 17.5588 160.268 17.606 160.21 17.6654L157.592 20.428C157.551 20.4699 157.523 20.5236 157.513 20.5818C157.496 20.6366 157.496 20.6955 157.513 20.7504C157.545 20.8034 157.591 20.8464 157.647 20.8744Z" fill="url(#paint0_linear_2_120)" />
  <defs>
    <linearGradient id="paint0_linear_2_120" x1="158.841" y1="31.7409" x2="171.592" y2="17.0821" gradientUnits="userSpaceOnUse">
      <stop offset="0.08" stop-color="#9945FF" />
      <stop offset="0.3" stop-color="#8752F3" />
      <stop offset="0.5" stop-color="#5497D5" />
      <stop offset="0.6" stop-color="#43B4CA" />
      <stop offset="0.72" stop-color="#28E0B9" />
      <stop offset="0.97" stop-color="#19FB9B" />
    </linearGradient>
  </defs>
</svg>
  