<svg width="124" height="46" viewBox="0 0 124 46" fill="none" xmlns="http://www.w3.org/2000/svg">
  <path d="M111.186 31.5931L104.027 16.0192H98.0854L108.312 37.0327L108.128 37.6655C107.872 38.5066 107.331 39.233 106.598 39.7206C105.865 40.2083 104.986 40.427 104.109 40.3394C103.083 40.3299 102.076 40.0594 101.184 39.5535L100.233 44.0542C101.606 44.6187 103.074 44.9133 104.559 44.9217C108.65 44.9217 111.125 43.4215 113.17 39.0024L124 16.0192H118.263L111.186 31.5931Z" fill="black" />
  <path d="M60.592 8.59961H43.4315V37.2266H49.0562V26.7045H60.592C66.861 26.7045 70.9823 23.551 70.9823 17.6521C70.9823 11.7532 66.861 8.59961 60.592 8.59961ZM60.2852 21.6935H49.0358V13.529H60.2852C63.5373 13.529 65.3985 15.0088 65.3985 17.6112C65.3985 20.2137 63.5373 21.6935 60.2852 21.6935Z" fill="black" />
  <path d="M94.4982 31.7972V23.1734C94.4982 18.0705 90.8268 15.4272 84.5271 15.4272C79.4137 15.4272 74.9344 17.8052 73.6766 21.4588L78.299 23.0917C78.9842 21.2649 81.3671 19.9178 84.3328 19.9178C87.8508 19.9178 89.3337 21.3466 89.3337 23.0917V23.653L80.9682 24.5716C76.1514 25.0818 72.9811 27.2352 72.9811 31.0828C72.9811 35.2978 76.6116 37.5634 81.4284 37.5634C84.5332 37.66 87.5567 36.5641 89.8757 34.5017C90.7143 36.5428 91.5733 37.9104 97.2901 37.1858V32.9198C94.9993 33.4709 94.4982 32.9198 94.4982 31.7972ZM89.3848 29.0621C89.3848 31.838 85.4884 33.3076 82.2261 33.3076C79.741 33.3076 78.2479 32.5116 78.2479 30.9297C78.2479 29.3478 79.4751 28.7763 81.8477 28.5008L89.4053 27.6231L89.3848 29.0621Z" fill="black" />
  <path d="M32.7935 30.5113C32.8332 30.6305 32.8332 30.7594 32.7935 30.8787C32.7704 30.9976 32.7136 31.1074 32.6298 31.195L27.2199 36.8592C27.1007 36.9815 26.9581 37.0786 26.8006 37.145C26.6427 37.214 26.4719 37.2488 26.2995 37.247H0.640631C0.521801 37.248 0.405002 37.2163 0.303149 37.1552C0.201363 37.0861 0.120111 36.9909 0.0679342 36.8796C0.0318991 36.7667 0.0318991 36.6455 0.0679342 36.5326C0.0891412 36.4152 0.142195 36.3057 0.221335 36.2162L5.6415 30.5521C5.76072 30.4298 5.90329 30.3326 6.0608 30.2663C6.21841 30.1963 6.38942 30.1615 6.56191 30.1643H32.1799C32.3035 30.1619 32.4249 30.1975 32.5276 30.2663C32.6427 30.3137 32.737 30.4006 32.7935 30.5113ZM27.2301 19.7544C27.1083 19.6354 26.9663 19.5386 26.8108 19.4687C26.6514 19.4045 26.4816 19.3699 26.3097 19.3666H0.640631C0.520315 19.3684 0.402899 19.4037 0.301682 19.4687C0.200464 19.5336 0.119491 19.6255 0.0679342 19.734C0.0325617 19.847 0.0325617 19.968 0.0679342 20.081C0.0851573 20.1997 0.138737 20.3102 0.221335 20.3974L5.6415 26.0718C5.76337 26.1909 5.9053 26.2876 6.0608 26.3575C6.21994 26.4226 6.38993 26.4572 6.56191 26.4596H32.1799C32.3035 26.4619 32.4249 26.4263 32.5276 26.3575C32.6308 26.2974 32.7103 26.2037 32.7526 26.0922C32.805 25.9836 32.8223 25.8615 32.8022 25.7426C32.782 25.6238 32.7254 25.5141 32.6401 25.4288L27.2301 19.7544ZM0.303149 15.5701C0.405002 15.6312 0.521801 15.663 0.640631 15.662H26.3097C26.4821 15.6637 26.6529 15.629 26.8108 15.5599C26.9683 15.4936 27.1109 15.3964 27.2301 15.2741L32.6401 9.60997C32.7238 9.52231 32.7806 9.41251 32.8037 9.29359C32.8391 9.18062 32.8391 9.05957 32.8037 8.9466C32.7614 8.83503 32.682 8.74136 32.5787 8.68125C32.476 8.61247 32.3546 8.57685 32.231 8.57919H6.521C6.34852 8.57645 6.17751 8.61127 6.01989 8.68125C5.86239 8.74757 5.71981 8.84474 5.6006 8.96701L0.190656 14.6516C0.104872 14.7378 0.0477427 14.8482 0.0270263 14.968C-0.00900877 15.0808 -0.00900877 15.2021 0.0270263 15.315C0.0934021 15.4241 0.189051 15.5124 0.303149 15.5701V15.5701Z" fill="url(#paint0_linear_2_248)" />
  <defs>
    <linearGradient id="paint0_linear_2_248" x1="2.77126" y1="37.9303" x2="28.9939" y2="7.65396" gradientUnits="userSpaceOnUse">
      <stop offset="0.08" stop-color="#9945FF" />
      <stop offset="0.3" stop-color="#8752F3" />
      <stop offset="0.5" stop-color="#5497D5" />
      <stop offset="0.6" stop-color="#43B4CA" />
      <stop offset="0.72" stop-color="#28E0B9" />
      <stop offset="0.97" stop-color="#19FB9B" />
    </linearGradient>
  </defs>
</svg>